{"title":"Hop.mkv","uid":6597851,"size":2683269751,"categoryP":"video","categoryS":"movies","magnet":"?xt=urn:btih:e62f4095cfeb68aae978c6daf3722e5b2967fc62&amp;dn=Hop.mkv&amp;tr=udp%3A%2F%2Ftracker.openbittorrent.com%3A80&amp;tr=udp%3A%2F%2Fopen.demonii.com%3A1337&amp;tr=udp%3A%2F%2Ftracker.coppersurfer.tk%3A6969&amp;tr=udp%3A%2F%2Fexodus.desync.com%3A6969","seeders":0,"leechers":1,"uploader":"ATANDT","files":1,"time":1313089701,"description":"2011 \n\nHop in 720p HD\n\nEnjoy\n\nGreat movie for kids.\n\n\n\n\nGeneral\nUnique ID                        : 239540063568403900510354673696702336735 (0xB435BCF621DF86D493042A482DD60EDF)\nComplete name                    : C:\\Users\\Dale\\Videos\\Hop.mkv\nFormat                           : Matroska\nFile size                        : 2.50 GiB\nDuration                         : 1h 35mn\nOverall bit rate                 : 3 766 Kbps\n\nVideo\nID                               : 1\nFormat                           : AVC\nFormat/Info                      : Advanced Video Codec\nFormat profile                   : &lt;a class=&quot;__cf_email__&quot; href=&quot;/cdn-cgi/l/email-protection&quot; data-cfemail=&quot;b4fcddd3dcf4f8809a85&quot;&gt;[email&amp;#160;protected]&lt;/a&gt;&lt;script cf-hash='f9e31' type=&quot;text/javascript&quot;&gt;\n/* &lt;![CDATA[ */!function(){try{var t=&quot;currentScript&quot;in document?document.currentScript:function(){for(var t=document.getElementsByTagName(&quot;script&quot;),e=t.length;e--;)if(t[e].getAttribute(&quot;cf-hash&quot;))return t[e]}();if(t&amp;&amp;t.previousSibling){var e,r,n,i,c=t.previousSibling,a=c.getAttribute(&quot;data-cfemail&quot;);if(a){for(e=&quot;&quot;,r=parseInt(a.substr(0,2),16),n=2;a.length-n;n+=2)i=parseInt(a.substr(n,2),16)^r,e+=String.fromCharCode(i);e=document.createTextNode(e),c.parentNode.replaceChild(e,c)}}}catch(u){}}();/* ]]&gt; */&lt;/script&gt;\nFormat settings, CABAC           : Yes\nFormat settings, ReFrames        : 5 frames\nCodec ID                         : V_MPEG4/ISO/AVC\nDuration                         : 1h 35mn\nBit rate                         : 3 315 Kbps\nWidth                            : 1 280 pixels\nHeight                           : 694 pixels\nDisplay aspect ratio             : 16:9\nFrame rate                       : 23.976 fps\nColor space                      : YUV\nChroma subsampling               : 4:2:0\nBit depth                        : 8 bits\nScan type                        : Progressive\nBits/(Pixel*Frame)               : 0.156\nStream size                      : 2.15 GiB (86%)\nWriting library                  : x264 core 115 r1995 c1e60b9\nEncoding settings                : cabac=1 / ref=5 / deblock=1:-2:-2 / \n\nAudio\nID                               : 2\nFormat                           : AC-3\nFormat/Info                      : Audio Coding 3\nMode extension                   : CM (complete main)\nCodec ID                         : A_AC3\nDuration                         : 1h 35mn\nBit rate mode                    : Constant\nBit rate                         : 448 Kbps\nChannel(s)                       : 6 channels\nChannel positions                : Front: L C R, Side: L R, LFE\nSampling rate                    : 48.0 KHz\nBit depth                        : 16 bits\nCompression mode                 : Lossy\nStream size                      : 304 MiB (12%)\nLanguage                         : English","torrent":{"xt":"urn:btih:e62f4095cfeb68aae978c6daf3722e5b2967fc62","amp;dn":"Hop.mkv","amp;tr":["udp%3A%2F%2Ftracker.openbittorrent.com%3A80","udp%3A%2F%2Fopen.demonii.com%3A1337","udp%3A%2F%2Ftracker.coppersurfer.tk%3A6969","udp%3A%2F%2Fexodus.desync.com%3A6969"],"infoHash":"e62f4095cfeb68aae978c6daf3722e5b2967fc62","infoHashBuffer":{"type":"Buffer","data":[230,47,64,149,207,235,104,170,233,120,198,218,243,114,46,91,41,103,252,98]},"announce":[],"urlList":[]}}